<?xml version="1.0" standalone="no"?><svg xmlns="http://www.w3.org/2000/svg" viewBox="0 0 1440 320"><path fill="#25274d" fill-opacity="1" d="M0,32L40,58.7C80,85,160,139,240,165.3C320,192,400,192,480,181.3C560,171,640,149,720,122.7C800,96,880,64,960,80C1040,96,1120,160,1200,176C1280,192,1360,160,1400,144L1440,128L1440,320L1400,320C1360,320,1280,320,1200,320C1120,320,1040,320,960,320C880,320,800,320,720,320C640,320,560,320,480,320C400,320,320,320,240,320C160,320,80,320,40,320L0,320Z" data-darkreader-inline-fill="" style="--darkreader-inline-fill:#1e1f3e;"></path></svg>